<mxfile modified="2021-02-22T05:45:21.739Z" host="app.diagrams.net" agent="5.0 (Macintosh; Intel Mac OS X 10_15_6) AppleWebKit/605.1.15 (KHTML, like Gecko) Version/14.0.3 Safari/605.1.15" etag="x25aSgsMbZEjVM-SkSGm" version="14.4.2" type="github">
  <diagram id="f106602c-feb2-e66a-4537-3a34d633f6aa" name="Page-1">
    <mxGraphModel dx="1082" dy="721" grid="1" gridSize="10" guides="1" tooltips="1" connect="1" arrows="1" fold="1" page="1" pageScale="1" pageWidth="1169" pageHeight="827" background="#ffffff" math="0" shadow="0">
      <root>
        <mxCell id="0" />
        <mxCell id="1" parent="0" />
        <mxCell id="GBL0uqNQ0znHpEIBjbps-720" value="" style="outlineConnect=0;dashed=0;verticalLabelPosition=bottom;verticalAlign=top;align=center;html=1;fontSize=12;fontStyle=0;aspect=fixed;pointerEvents=1;shape=mxgraph.aws4.rds_mysql_instance;shadow=0;sketch=0;fillColor=#647687;strokeColor=#314354;fontColor=#ffffff;" vertex="1" parent="1">
          <mxGeometry x="870" y="300" width="80" height="80" as="geometry" />
        </mxCell>
        <mxCell id="GBL0uqNQ0znHpEIBjbps-724" value="" style="group;sketch=1;" vertex="1" connectable="0" parent="1">
          <mxGeometry x="660" y="160" width="145" height="320" as="geometry" />
        </mxCell>
        <mxCell id="GBL0uqNQ0znHpEIBjbps-734" value="" style="verticalLabelPosition=bottom;verticalAlign=top;html=1;shape=mxgraph.basic.rect;fillColor2=none;strokeWidth=1;size=20;indent=5;shadow=0;fillColor=#dae8fc;fontFamily=Comic Sans MS;sketch=1;strokeColor=#6c8ebf;" vertex="1" parent="GBL0uqNQ0znHpEIBjbps-724">
          <mxGeometry x="-90" y="10" width="235" height="310" as="geometry" />
        </mxCell>
        <mxCell id="GBL0uqNQ0znHpEIBjbps-721" value="Daily Schedulers" style="verticalLabelPosition=bottom;verticalAlign=top;html=1;shape=mxgraph.basic.rect;fillColor2=none;strokeWidth=1;size=20;indent=5;fontFamily=Comic Sans MS;sketch=1;" vertex="1" parent="GBL0uqNQ0znHpEIBjbps-724">
          <mxGeometry y="90" width="70" height="60" as="geometry" />
        </mxCell>
        <mxCell id="GBL0uqNQ0znHpEIBjbps-722" value="" style="shape=image;html=1;verticalAlign=top;verticalLabelPosition=bottom;labelBackgroundColor=#ffffff;imageAspect=0;aspect=fixed;image=https://cdn4.iconfinder.com/data/icons/logos-and-brands/512/267_Python_logo-128.png;shadow=0;fillColor=none;fontFamily=Comic Sans MS;sketch=1;" vertex="1" parent="GBL0uqNQ0znHpEIBjbps-724">
          <mxGeometry x="15" y="100" width="40" height="40" as="geometry" />
        </mxCell>
        <mxCell id="GBL0uqNQ0znHpEIBjbps-730" value="" style="group;sketch=1;" vertex="1" connectable="0" parent="GBL0uqNQ0znHpEIBjbps-724">
          <mxGeometry y="190" width="70" height="60" as="geometry" />
        </mxCell>
        <mxCell id="GBL0uqNQ0znHpEIBjbps-731" value="Ceph API" style="verticalLabelPosition=bottom;verticalAlign=top;html=1;shape=mxgraph.basic.rect;fillColor2=none;strokeWidth=1;size=20;indent=5;fontFamily=Comic Sans MS;sketch=1;" vertex="1" parent="GBL0uqNQ0znHpEIBjbps-730">
          <mxGeometry width="70" height="60" as="geometry" />
        </mxCell>
        <mxCell id="GBL0uqNQ0znHpEIBjbps-732" value="" style="shape=image;html=1;verticalAlign=top;verticalLabelPosition=bottom;labelBackgroundColor=#ffffff;imageAspect=0;aspect=fixed;image=https://cdn4.iconfinder.com/data/icons/logos-and-brands/512/267_Python_logo-128.png;shadow=0;fillColor=none;fontFamily=Comic Sans MS;sketch=1;" vertex="1" parent="GBL0uqNQ0znHpEIBjbps-730">
          <mxGeometry x="15" y="10" width="40" height="40" as="geometry" />
        </mxCell>
        <mxCell id="GBL0uqNQ0znHpEIBjbps-723" value="&lt;font face=&quot;Comic Sans MS&quot;&gt;Openshift&lt;/font&gt;" style="aspect=fixed;html=1;points=[];align=center;image;fontSize=12;image=img/lib/mscae/OpenShift.svg;shadow=0;fillColor=none;sketch=1;" vertex="1" parent="GBL0uqNQ0znHpEIBjbps-724">
          <mxGeometry x="-70" y="30" width="43.48" height="40" as="geometry" />
        </mxCell>
        <mxCell id="GBL0uqNQ0znHpEIBjbps-725" value="" style="verticalLabelPosition=bottom;verticalAlign=top;html=1;shape=mxgraph.basic.rect;fillColor2=none;strokeWidth=1;size=20;indent=5;fontFamily=Comic Sans MS;sketch=1;" vertex="1" parent="1">
          <mxGeometry x="710" y="30" width="70" height="60" as="geometry" />
        </mxCell>
        <mxCell id="GBL0uqNQ0znHpEIBjbps-736" style="edgeStyle=orthogonalEdgeStyle;curved=1;orthogonalLoop=1;jettySize=auto;html=1;fontFamily=Comic Sans MS;sketch=1;" edge="1" parent="1" source="GBL0uqNQ0znHpEIBjbps-721" target="GBL0uqNQ0znHpEIBjbps-720">
          <mxGeometry relative="1" as="geometry" />
        </mxCell>
        <mxCell id="GBL0uqNQ0znHpEIBjbps-737" style="edgeStyle=orthogonalEdgeStyle;curved=1;orthogonalLoop=1;jettySize=auto;html=1;fontFamily=Comic Sans MS;sketch=1;" edge="1" parent="1" source="GBL0uqNQ0znHpEIBjbps-731" target="GBL0uqNQ0znHpEIBjbps-720">
          <mxGeometry relative="1" as="geometry" />
        </mxCell>
        <mxCell id="GBL0uqNQ0znHpEIBjbps-738" style="edgeStyle=orthogonalEdgeStyle;curved=1;orthogonalLoop=1;jettySize=auto;html=1;entryX=0.01;entryY=0.456;entryDx=0;entryDy=0;entryPerimeter=0;fontFamily=Comic Sans MS;exitX=0.436;exitY=-0.003;exitDx=0;exitDy=0;exitPerimeter=0;sketch=1;" edge="1" parent="1" source="GBL0uqNQ0znHpEIBjbps-721" target="GBL0uqNQ0znHpEIBjbps-725">
          <mxGeometry relative="1" as="geometry" />
        </mxCell>
        <mxCell id="GBL0uqNQ0znHpEIBjbps-749" value="" style="edgeStyle=orthogonalEdgeStyle;curved=1;orthogonalLoop=1;jettySize=auto;html=1;fontFamily=Comic Sans MS;sketch=1;" edge="1" parent="1" source="GBL0uqNQ0znHpEIBjbps-742" target="GBL0uqNQ0znHpEIBjbps-731">
          <mxGeometry relative="1" as="geometry" />
        </mxCell>
        <mxCell id="GBL0uqNQ0znHpEIBjbps-742" value="" style="outlineConnect=0;dashed=0;verticalLabelPosition=bottom;verticalAlign=top;align=center;html=1;fontSize=12;fontStyle=0;aspect=fixed;pointerEvents=1;shape=mxgraph.aws4.users;shadow=0;sketch=1;" vertex="1" parent="1">
          <mxGeometry x="390" y="285" width="70" height="70" as="geometry" />
        </mxCell>
        <mxCell id="GBL0uqNQ0znHpEIBjbps-744" value="" style="shape=image;verticalLabelPosition=bottom;verticalAlign=top;imageAspect=0;aspect=fixed;image=data:image/png,iVBORw0KGgoAAAANSUhEUgAABFAAAAH7CAYAAADrZGu2AAAABHNCSVQICAgIfAhkiAAAAAlwSFlzAAAuIwAALiMBeKU/dgAAABl0RVh0U29mdHdhcmUAd3d3Lmlua3NjYXBlLm9yZ5vuPBoAACAASURBVHic7N15fJ11mf//93Wfk6R7kpZdQFBEBUWl0rCok7aINKVsetJCE0CFOs7XZVzHnzPzNfPVcZlxZkTGDTds2tL2KDJsRWTJT9mK1oVFRBRREFnaJmnpkuSc+/r+UZgvMkDT5HM+9zknr+fj0cdDhMd1Xc3jzjn3fd2fz/WRAAAAAAAAAAAAAAAAAAAAAAAAAAAAAAAAAAAAAAAAAAAAAAAAAAAAAAAAAAAAAAAAAAAAAAAAAAAAAAAAAAAAAAAAAAAAAAAAAAAAAAAAAAAAAAAAAAAAAAAAAAAAAAAAAAAAAAAAAAAAAAAAAAAAAAAAAAAAAAAAAAAAAAAAAAAAAAAAAAAAAAAAAAAAAAAAAAAAAAAAAAAAAAAAAAAAAAAAAAAAAAAAAAAAAAAAAAAAAAAAAAAAAAAAAAAAAAAAAAAAAAAAAAAAAAAAAAAAAAAAAAAAAAAAAAAAAAAAAAAAAAAAAAAAAAAAAAAAAAAAAAAAAAAAAAAAAAAAAAAAAAAAAAAAAAAAAAAAAAAAAAAAAAAAAAAAAAAAAAAAAAAAAAAAAAAAAAAAAAAAAAAAAAAAAAAAAAAAAAAAAAAAAAAAAAAAAAAAAAAAAAAAAAAAAAAAAAAAAAAAAAAAAAAAAAAAAAAAAAAAAAAAAAAAAAAAAAAAAAAAAAAAAAAAAAAAAAAAAAAAAAAAAAAAAAAAAAAAAAAAAAAAAAAAAAAAAAAAAAAAAAAAAAAAAAAAAAAAAAAAAAAAAAAAAAAAAAAAAAAAAAAAAAAAAAAAAAAAAAAAAAAAAAAAAAAAAAAAAAAAAAAAAAAAAAAAAAAAAAAAAAAAAAAAAAAAAAAAAAAAAAAAAAAAAAAAAAAAAAAAAAAAAAAAAAAAAAAAAAAAAAAAAAAAAAAAAAAAAAAAAAAAAAAAAAAAAAAAAAAAAAAAAAAAAAAAAAAAAAAAAAAAAAAAAAAAAAAAAAAAAAAAAAAAAAAAAAAAAAAAAAAAAAAAAAAAAAAAAAAAAAAAAAAAAAAAAAAAAAAAAAAAAAAAAAAAAAAAAAAAAAAAAAAAAAAAAAAAAAAAAAAAAAAAAAAAAAAAAAAAAAAAAAAAAAAAAAAAAAAAAAAAAAAAAAAAAAAAAAAAAAAAAAAAAAAAAAAAAAAAAAAAAAAAAAAAAAAAAAAAAAAAAAAAAAAAAAAAAAAAAAAAAAAAAAAAAAAAAAAAAAAAAAAAAAAAAAAAAAAAAAAAAAAAAAAAAAAAAAAAAAAAAAAAAAAAAAAAAAAAAAAAAAAAAAAAAAAAAAAAAAAAAAAAAAAAAAAAAAAAAAAAAAAAAAAAAAAAAAAAAAAAAAAAAAAAAAAAAAAAAAAAAAAAAAAAAAAAAAAAAAAAAAAAAAAAAADAX7KsCwAQhhcKuY253L65Bp9pSmdJySxLfZYS7SVXsySZrMGlac8TYYuk8lP/0C/zje62yZVs8tzI5iZLNk29pPiYSR7nbwQAAAAA1YMGClBD/L0LmgYGm49IyumRMr3UpRfLdIjcXiz5QZIaKlzCkGR/lPxBSX+Q+4OWJL8rS3e3Tm6+zy6+eKTC+QEAAKI5dl7H+e7pI/nhxh/fcssVW7OuB0C2aKAAVWpzodCca9Jx7pots6NcepVJh0vKZ13b8xiWdK9Ld5t0l6e6YyjXdMd+vb3bsi4MAABgLNrmdayXNEe7Vun+QqZb3O3mcjJ03Ybrrx/MuDwAkdFAAarEwLmLX+olf4OZHS/58ZKOkJRkXdc4lSTd6aZbEtdtJS/9eNbKyx7OuigAAIDReEYD5dlGJN3uru97Q+m7P7nuuocilwYgAzRQgIw8VChMnj7ZTlCqE11aZLsaJhOAPSDp+tT8qtaWrdfZReuGsq4IAADgubxAA+XZfmVSsZzY8p9cf/UDla4LQDZooAARbe0+Y5+y598q2RmS3ihpUtY1ZWybSTemsu9bmru8ZdWq/qwLAgAAeNoeNFCelsrtViW+umTDK9jmA9QXGihAhQ0WCjPTpuQUWVowt7eo8oNea1XZpdvNfHm6U2tmFovccAAAgEyNoYHyTDslFWXp59ffcO2dAcsCkBEaKEAFeHt7fuDAfU4x6QJJJ6l6B79WqyFJV5rpGzNeesQPracnzbogAAAw8YyzgfJMG9z9i+Utj1+6YcMGTi0EahQNFCCgTUvPPDBn+aWS/kbSwVnXUyf+JGmFp6WvtK667A9ZFwMAACaOgA2Up/gjbrpwZ678pTuvu46TCoEaQwMFGCeXbEtX4S0u+6CkE8XvVaWUzf2q1O3fW1et/VHWxQAAgPoXvoHy3zaa9CVv8n9fv27dlgrEB1ABPOgBY+SFQuNAU7LE5B+R9Kqs65lY/Oeu5AstDz+2yvr6SllXAwAA6lMFGyhP22iyz49MTS7acOWV2yuYB0AANFCAPfTEO06d3jAy6T1yvU/SflnXM6G5HjTZv89omPx1u+SSnVmXAwAA6kuEBsoupj+72/vvuPHqYsVzARizJOsCgFrxyLJFU/q7Cu9vGJ50v1yfFs2T7JkOcfMvDpa239/fVXi/n3feRD8WGgAA1CLX/mZ+StZlAHhhNFCA3fBCoXGgu7Bs8vbJvzXZFyTtm3VN+B8ONNkXBkvb7xvoLizz9nZOPQIAAAAQFA0U4AVs7u5cNNhkv5bb10zaP+t6sFsHy+1rgwfuc89A9+JC1sUAAAAAqB+8pQWew8DZhdmW6D/c9casa8GYHC73tQNLO69PE/vAzN41d2ddEAAAAIDaRgMFeIYnzyvsVy7ZZ13qdlZo1T7TiYn7z/qXdn5FDcOfaL3k8oGsSwIAAABQm3hABJ4y0L24UCrZ3S6dK3436kmDmd5npcZ72dYDAAAAYKxYgYIJb+Dst75ESe6rcn9z1rWgovaT+9r+7sJVaVp+96yVlz2cdUEAAAAAagdv2TFheU9PMtBV+IiS3N2SaJ5MEOZ2Ss7ydw10LT4/61oAAAAA1A4aKJiQNi1ZctDgb++5QbJ/kTQ563oQXYvkXx/o6lz35HmF/bIuBgAAAED1o4GCCWdgaeFtuYb0F5K1Z10LMndyqWS/HOwqLMy6EAAAAADVjRkomDCeeMep0/NDk78k82551tWgiuzjsisHuzsvnNGy9WN20bqhrAsCAAAAUH1YgYIJYcs5iw9vHGq6zcy7s64FVcnc9beD/dNv7T9vySFZFwMAAACg+tBAQd3r7yqcmqZ+h5sdmXUtqHpHWyn9yUBXgaHCAAAAAP4CDRTULS8UcgNdnZ812eWSmrOuBzVjL8nW9Xd19rhkWRcDAAAAoDrQQEFd2rR06YzBJl0j6e/EQzD2XM6kTwx2da709y5oyroYAAAAANmjgYK6s2nJkoNyNnKzZCdlXUuVckn9z/qD53bWlv7p128554xZWRcCAAAAIFucwoO6MtC1+GhTeqVLB2RdS2RPSP6ALHlQ0u/letBTPer5dFODJ5uk4U3THurfbH19pRcK4oVC47apmjnk6axkJDdL5rOSxA5w1yGSDpH8EMleKqm14n+jKuHSGzxtuHWwq7CweUXxt1nXAwAAACAbNFBQNwa7OzvcfY1L07KupbLsfnfdbuZ3Sv7LfF53Tbuk+GiQyMXisKRHn/rzvDYtWXJQviF9tad+lJLktXI/TtLBIWqoUoe77LYt5xROnbG8eFvWxQAAAACIjwYK6sJAV2enu1ZIasi6lsBc0i9lusFdN+dt5Nbpvd9/POuiZq1e/ZCkhyRd8/T/t2npmQfmlDvBEzvBXCdJenlmBVbGXmlqPxxYuuS0lpWrb8i6GAAAAABx0UBBzetf2nmupG9KymVdSyBPSlrnrmtL5eTavVevfiTrgkZj1srLHpa05qk/GuguHCrXySZb4NKbJU3KtMAwpsrSq7YsXVyYsXLNVVkXAwAAACAeTidBTRvoWvwuyb+s2h+IvNPNr5cnxZGh9LJ9isUnsy4opEeWLZoyacfk+YmrW9Kpkmr9ZJuSmb+jubfYm3UhAACgctrmdayXNCdKMtPy9Tdcc26UXADGhBUoqFn93Z0fkPu/qYYbgS6/VUq+MWSNa/fr7d2WdT2VcsDFV26XdKWkKwfOPrvVcqWz3XWBpNdkXNpY5d3t24PdBdFEAQAAACYGGiioSQNdhXfLVavNk61uusRlF8/sXXt31sXE1rJqVb+kL0n60uDZhTmeJMskX6ra2+KTc7dvDywt7GhZWfxu1sUAAAAAqKxa3/aACWiwu9At2X+q9ponj7r0T0rzL27tXfu+mb1rJlzz5NmaVxXvaFmx5vxcgx8s6WMu/TnrmvZQTmartixdfErWhQAAAACoLBooqCkD3YsL7vZt1dS1a/eb+TnNU1oObl2xtuepFRh4hunfLj7RsmLt554c8pea6T2S/pR1TXugITVf239259ysCwEAAABQOTX0EIqJbnDp4gVyX6laOW3H9aC73tn88GNHNPcWe+3ii0eyLqnaHVQs7mjuXful5vyUw9ztA5Iey7qmUZpsia4YPLsQZ8gcAAAAgOhooKAm9J+z5HVuvlZSQ9a17JZps7m9r3nYX966cu23rK+vlHVJtcYuuWRn68o1X9hpTS810z9KqoUBu9M8sSsGuguHZl0IAAAAgPBooKDqPbFkyQHm6X9JmpZ1LbtRkuziXN5f0bxyzUVWLA5nXVCt26+3d1tz79pPjZSSwyW7WFKadU27sa+UXDNw9tmtWRcCAAAAICwaKKhqm5YundGQL6+T66Csa3khLt1SzpVf27Jizbumf7v4RNb11Ju9V69+pGXFmnclib9B0l1Z1/OC3F+hZOQyLxQasy4FAAAAQDg0UFC1vFDI5TSyVrKjsq7lBWw103taDjviTbO+8717si6m3s1YXryteUrL7Ke29QxlXc/zs/aBxuQbWVcBAAAAIBwaKKhag432aZneknUdL+Dacik5srl37Zesp6fat5bUDbv44pHm3rWfSsrl10q6Pet6no+Zd/d3Fd6fdR0AAAAAwqCBgqrUf/bi02T6SNZ1PI+dkj7WfNgRC2etXv1Q1sVMVDMu/d6vmx9+/I2SPiapKk84Mtnn+7sLf5V1HQAAAADGjwYKqs7W7sWvtMR7JVnWtTyHu1KzY1pWrP0cq06yZ319pZYVaz+XuObK9WDW9TyHvLmtfmLJkgOyLgQAAADA+NBAQVV54h2nTi9Ll0mannUtz2bS8q1D3jazd83dWdeCvzRj5dpb5PmjXbo661qew375fLrWly2r/iO4AQAAADyvfNYFAM+UH5r8JZm/Ius6nqUk6R+aV6z9XNaFjMbGcwovStLcS3Lyg12+v8kOdPn+cs1UopykGXLlJXuqSZUOyiyV+4DcXKYnTHo0NT2UyP5ctvThxpH8/dMuvfSxTP9iu9GyalW/S4sGuzo/KunTqqIGsUknDG4b+CdJH8+6FgAAAABjU41bJDBBDXYvXuLul2Zdx7M8lig5c8aK1bdmXchz2dJVeHnZ7ViTjnXzo0x2hKSWCqXbJOluN92ZpH572pC7tfWS1Q9WKNe4DHYVFrrsUlXXSqbUlcxvXbG6L+tCAADA6LTN61gvaU6UZKbl62+45twouQCMCQ0UVIVNS888MJfkfynXzKxreYbfWlruaF71vfuzLuRpG88pvChXtrfYrtOJ5knaK8t6XPqz3K5PTD9IbPiH03u//3iW9TzT5u7Fr0rcr5Z0cNa1PMPDNuSvaS4WN2ddCPZce3v7pKFk2qxS4k35UilJLd+cdU3jkrctqXu50XI7G0a2PN7X11fKuqRaNnvRoinJ0NAspQ0NtXZ9uKzkOd8qSelQaYe2b9y4YcOGqhzOPR5t808+SmkuynbKxOzR22686k8xcj2tvb192lB+yqGe+iGS9nNPzEytkpQqbQ2VJ5HtlGyHJLn5TqW2wyz1VLmNMt+YmDYmycimW48/fqPqYF5cvTdQjjuuMDmd8uShniaHJub7u1vi8ubELHHzZnevxIreUqJkqyS5q1+STNqYJvZnzw0/vL25+bF7isXhCuQFxo0GCjLnPT3J4O9+db1cc7Ou5Wku3ZIr506fcemlG7OuZeDcxS9VKS3I1CnZ67Ku5wWkcq132dpUI9+dtfKyh7MuaFvXmfuPWP5KuWZnXcszfK9lxdq3ZV0E/qcTTjh1+sik8mstTV8ms5fJ9DJJL5Zrb8lmST4t6xoryCU9btITLvujzO/x1O/O5XTXga3T7iwWi+WsC8za8SedtM/ISPJqs+Rlcr0sMR3upgOVapZMe0manHWNgQ1IetyljeZ6SKb7ZXZf4vabpvTJX/X19T2ZdYF7qm1ex8OSXhQjl7l9+vabrv77iiXo6UmO6bvjqCTn8+XJPJcfY9LeFcs3NiOSHpB0r8vvkyX3WmK3rv/hVVXzYmo06q2BcuyJC1+Zpun8RJrnUptk1Tro/gFJv5D7LyTfUJrW0Lfhyiu3Z10UQAMFmRvoKnxEsn/Juo5n+G7zkC+1DDvfmwuF5mSSnSXp7fJIX9phpSa/JXX75o6pO4oHXJzdF94T7zh1esNw0xWStWdVw7OZrKt5xZqVWdcx0R13XGFyefKOk83Sdrm/QbLXSMplXVcV2mzSDe5+rSbpu+vXrduSdUExzJl/xiylOxcmsje56QRJ1TafK0slSb+UdLPMby7ZyA83XH/9YNZF7U49NFDmnLToUJVK7zLZeZL2DR0/kocl9cnsBztyI9+/87rrtmVd0AuphwbKMe0d++USnS/pAq+ulbl7YoekPjf9V9mGV9fCZw7qEw0UZGqgu3Co3O6SNDXrWiRJZquaH3rsXMtoKXv/2YXXJpa83807JU3JooYKGJS0MknswhnL1/wmiwL8vQuatmyetsbNTssi/3PYlLORI6ppy9OE0dOTzPnxHR1KbYmZTqvzVSUVYE+6fLV7+Qs/uekH92RdTWizFy2akt9WfqtkSyR/syROzxoFl4ZM/gMzrd2eK19erQ/EtdxAaZvf8Wa5/a3kJ6uKhqQHsFXSd839m7fftO6WrIt5LrXcQDl2bkdbavqgSWeorj7P7Em5r7ScXXj79Vffm3U1mFhooCAzLtng0s7rZDox61p2sYubD3vluy2D/boDSxefJPMPS3pz7NwRpZKuSFyfn7FybfSbJC8UGgebbKWkqtg+4269rSvXnJN1HRNFe3t7frtNPtvMPi7p5VnXUwfKkn0rTf1//6TvmkezLma82tvbp+3ITXmn3D9axcvZa4RvMtl/ptZ00R03fH9T1tU8Uy02UNrmLzjC3D7n0ikh6qpyt7jZ/3fHDVf/OOtCnqkWGyizT1x0cD4tf0pSl+r7eS+VtDJN9dF6+C5CbajnXyhUuYHuwjvl9o2s65Akmb7V3Lv2fNs1ByCazecU3pCk9s+S3hQzb9ZcukXmf9/aW/z/o+YtFHKDTbZKUmfMvM8ncVs0Y+Waq7Kuo94dM/fk+Ynlvir5YVnXUoc2mts7b7/p6iuyLmSMrG3ugrfL9C+75twgHHtS7p8ubXns89UykLaWGiht7QsONNOn3Kxb9bXiZHdcrrWeNP2vamnA1VIDZc78M2aZD/2jpHdLagxXWNXbIuk962+8pjfrQlD/JtIHMqrIk+cV9pPbv2ZdhySZtLz5pUdcELN5Mrh08TEDXZ19SWo/1gRrnkiSSSeYW19/d+HKrUsLR0TLWyyWm4e8W/J1sXK+kFR+0aPd3dWxfa0OnXDCqdPb5nZ8NbHkhzRPKmYvN7/82Lkdn1ONvZSZfeKig9vmL1gns2/SPKkEnybTp/PN+/5kTnvH67OupoZY29yFy5TYr9zsXE28e3WTabH50D1z5ndMhFU3wbTN7Xir+dCvJL1fE6t5IkkzJC1vm9exvL29na25qKiJ9qGMKlEu2eckBTtSbxy+P+Phx98Za9vOYKEws39p54Vufpukv4qRs5qZ2ylls1/2L+28cHOhEOXITysWh7cO6a2S98XI98LF6JBJPvTxrMuoR8ecdNJB5abSrTK9SzX2YF+DzE0fbZvX8Z3Zs2fXxB774+adMiefln8it7dkXcsE8Bolurlt/sKurAupdrNPXHRw27yOH8j8a5KmZ11PxvY11xXHzuv4h6wLqXavbT+9pW3+gq/J9F1J+2RdT8a6d+Sm3HT8SSdN9J8DKogGCqIb6Fp8tO/ak5m1HzW3bj0rxsBYl2ygu7DMm+x3ZnqfOOnjmfJmel/SZPcNdi9eEiPhQcXijpHGoVO16xSJrH1osKvA6oiA5sw95TVJKX+bS6/KupYJpjvfst9Xsy5id9rmdpyWKr1JPGhEY1KT3Je3zev4WNa1VCk7dl7H+fm0fJfqexbanjKXPjln3sIvFwoF7puew5x5p5zRlAz/Wm7Lsq6larheXy7lfzz7xEW1etoQqhwNFETlkpn8QmV/7d2rNH+6XbRuqNKJ+s9bcsjg0s7r5PY1SS2VzlfD9nX3S/u7Oq/aeE6h4nvU9/7WFVtHSkmHTA9VOtduNLns0xnXUDeOO7Hj1WbpjYo05wDP4v6OtrkL/jHrMp5P29yO0556S1svp5zVEpP0mTnzF3w060KqyWvbT285dt6C77n0de3ahoBnMfm7/7hpWy9NlP+nvb19Utv8jgtN6WWq3eOsK+nwfJrewEoUVELWD7GYYLZ0dS5x6Q0Zl7HR5Ke2rFrVX+lE/V2L326l9O7qOWmo+pm0MO92Z39X5+mVzrX36tWPuCWnSXqy0rl2o9DfXZjwW7rG67j2txyWprpO0sysa5nQzP5pzryOs7Iu49na5ne82U1rJOWzrmUiM7fPts3reHvWdVSDY+affEyTDf/MZWdkXUsNOOuPm5/8ctZFVIM58zsO35FMuV2u92VdS3Xzw8rl/H/NXrSIhjmCooGCaPy88ya59NmMyxhOlJzWvKL420omeeIdp07v7+rsNfm3JDEkdE+5Zpr0/f6li5c/sqyyX3yty1f/3KVuRT6B6dnM9R/e08Nn8hidcMKp09Mkf7mk/bKuBTKTvnLCm0+tmuOAXz/35JfLtdakpqxrgUzS146bu2BCN43b5i5clnhys0yHZl1LzXBb1ja/4/1Zl5GlY+cuPNNc6yW9JutaaoLr2Ny29PNZl4H6ws06ohkY2fHXkjLdj2huH5ixYvWtlcyxtXvxKxuGJ/3UqmPOS00z8+4pOyb/aNOSJQdVMk/rirWXy7Nu7tnrBn9371uzraFmWWlSqVfyI7MuBP+tuVwufSHrIqRdzbWcJf8ltlBWk4bUbPUb37hg76wLie217ae3tM3r+N5Tg2In2kkp4+f6/HHzFh6fdRmxtbe3T2qb2/FVN/+e+CzbIyb/6zlzFy7Mug7UDxooiOKhQmFyYv6RLGtwaWXzyjUVXf45uHTxgrL7rZIOr2SeCcU1O5dPf9Z/dufcSqZpftkR/5D58cbun3L2eO+xOfM7lsl1WtZ14C+5VKiGY0jLjaX/kPTyrOvA/7DfcKN9PesiYpozv+PwpmT4VklnZl1LDcun8t6JdFRtW/uCA3fkpvz4qVPlsOfMEv/6USedxIpwBEEDBVFMb9J7XMpyOfddTw75BZVM0L+080NufpV4M1AJe1mia/u7Fp9TqQTW05MmSalb0p8qlWMUDt/SlEQ5iaheHNt+8iHmxvLcKmWuf1aGx0i3zT25w03vzCo/dsN12rFzOzqzLiOGOXMXLjTXHZJemXUtdeAlO5Ipf591ETEcO3fBCUrsJ3K9Putaappr/ymlhvdkXQbqAw0UVNzjhcI0yT6cYQlDaZLrOqhY3FGJ4C7ZQFfnZ830efE7VUmNJr+kv6uzp1IJZiz//iZPdbakcqVy7I7Le7y9nSGXo5QmyecknzBvImvQUXPmd2SydHr27NkNsuQ/ssiN0XPp83U+5NGOnbfw78z8CknNWRdTRz54/LwFL826iEpqm7twmZvdKGZ7BeFKP9K2YAEnXWHceNhDxTVOsvdKyuwYMZf/3czll95Zkdjt7fmBrs7lkv6uEvHxP5hJnxjs7vwPr9Bb7dZVa38k2b9XIvYoHTbwon2WZpi/Zhw3b+HxJhWyrgMvzNzenUXefMu+fyO2U1Y/00G57aW6fDPc3t4+rW1ex3dd/llxzx1aY1lJXd57HVkoNLbNX/A15uSEZrNsKDk36ypQ+/gwR0X5exc0ZXrMmusHLSuKX6xI6EIhN3DgPpcwLDY+d/3tYHfn1yp1ak3zUPoPkv+8ErFHw0wfrlSDqJ6k8n8QP6ca4G+JfSLPggULmuT+0Zg5MXbm9sHjjitMzrqOkFz+0h3J1NvFvJMK8u5j2jvqbHWG7ztt07Yb5bYs60rqkct5QYVxo4GCihocmNal7JYeblPi77YKHE/ry5Y1DDbZapP4IM6K64LB+3/1pUo0GqxYHE6T/HmSRkLHHqVXbVm6+OSMcteEtvknHyWJn1FtyJXLI1G38WzeqaWSVc0xytitfdNJ27uzLiIo02JOBqu4SZbU2WBVt7dIOiHrMupY25z5HaxMxLjQQEHFuGRZrj4x+cdaeou/Dx3XJRvcPvA1SW8LHRt7yPTXA92dF1Yi9FPbvjLbyuOWfiir3DUhTf5GrD6pGS7riJrQ9L+i5sP4JZUd9I76ZNJ54rsAe8S5f8e40EBBxex6g25HZZPd188Y0lcqEXmwu/NfJb29ErGx58z13oHuzoos1W9u3foJmf26ErF3z+YPdC0+Opvc1e3IQqFRxg1QjXnzggULmmIkapu/4AjJ+N2pNa7XH3dix6uzLgM155C2E09mxQZGzaQ3ZV0DahsNFFSMW/q3GaUupa4LrFgMfpJK/9LOD8nFyoBq4/rs4NLO4LNo7KJ1Q/I0s1VU7srqd6iqTdu4bZFks7KuA3tk6uZhi3PT6lZfW0EmEC8bx7hjz6W507MuATXE7bhCoZDLugzULhooqIiB7sKhkp2YUfqLZ64s3hU66GBX4WQzfS50XARhxl/2RgAAIABJREFUbvr6lnMKx4UO3LKi+EOTrggddzTMvDBYKMzMIndVS3Rq1iVgz5lH29d/WqQ8CMzNT8m6BtQiz+SodNSsGX/YuONVWReB2kUDBZWR2gXK5vrqT8q5T4QOuunctx7psjWS6FhXr0lpapdtWrLkoNCBPWcflDQUOu4oTFJjwqDiZ+rpSeR6S9ZlYM+5VPHtGXNOWnSopFdWOg8q5qjj53W8OOsiUHNeccyJC1+SdRGoHSZvy7oG1K581gWg/nh7e37AdF4WE73c7f/MuPTSjSFjPtrdPTVXHipKmhEyLipiv1xD+l0vFN5oxeJwqKAt31nzu4GuzoskfThUzNFyS8+XdFHsvNVqTt8dRyvRvlnXgT3n0msqnSMplU726pknuUXSZkmppG2ShiXtlGtHplWZT5WsUbu+03KSWiRNfupP5kpmJ0r6ZtZ1oLbkUn+TpAeyrgM1wtKXZV0CahcNFAQ3cOA+p5i0fwap/9gyc0vwwbFNPvRV1cMbTdNmuR6RabtSbXnWv2t2aapJB6rWG0WuOVuaks9IYWfVeH74n63UeL52PWxEZEcNnl2Y07yqeEfcvNXJEn9DxgcubDHpPpd+K7PfKtWjkkqudKcs2ZG4yso96/crA2lq0yXPm6tVUt7kL/ZERyrVUTIFX6U1GiYd2t7ePq2vr+/JSuVIPTnBLPjJ9aOxRdJl7n5TIrsvP2K/ufnmq/uzKGSM7Ph5HQeX5S+X2SslzXXXySZFGfz7F4VIx4sGyjPtkOmX7vZzU/ob8+SP5aT8kCy3KfHctoah8vDNJx4zqJ6eNGTSQqGQ+/Oft88wS/M7m5Lp+VLSmFo6VbnyZHnuEFd6sHnyOsmP1a57h0ylu47+vSTrOqrIsKRfmOsuN/u1W/pbKfdY3suPJ8PJZknaf/8pW4oB5gW2t7fnS6Wp00eaco2placmnk5Smkz2RFPM/RCZHerurzf58VUzv8yMBgrGjAYKKuH8bNLaJ+2idUG3WfR3LX67yYMPJ62wHSZtSF0/U+I/d8v/bNuO0v0HFYujeuv5aHf31Ek+/HJJR+/6kx4t2eskNVa06oBc/oEtSxffNGPlmqtCxWy95PKBwa7OL7jUEyrmaHnOzpdEA0WS3I7NqH9yoyX2mUmlbX19fX2lTCoIw46bu+BNbvZhl2LPm0i256a9WtJtlUpg5sHnIO02p/t38iPJB2qsYfJsfuuN1/xB0h8kXSfpwhPefOoB5fLIf7rsjLiV+PFR81UZl4YS2c2ppdflTD9sKu24a7efOTdfHbyOpx6sn76mn3h2xmf+w5y5p7xGVn6nyd4paUrwYkbBFG3GUjW7S2aXy8rXTS7t/GlfX9/OGEmfuj6f7/Pvx0//j/b29vzOZPKbpeRDLp8fo7bnY66XZpkfta1q1rmiPmw566y90lz5z4rdnHM92DzsLw+5bWPT0jMPzFn+LkVfcTAmm9ztGkt05UjDjmv3/tYVW0MGf2TZoimTdkyen7idIvnpkvYJGb9Cnsg1+JHTv1189o3fmG0uFJqTSfaAXLEHuw40D/m+Ia/vWnXsvI4/uHRwxJSp3HvW37TuU5IyWdpQIdY2b+GHJP8XRbwXcLPz77jh6oqsLmibf+q+8tKjlYj9PFymD6y/4ZoLI+aMzebMW/BJk/19xJzeMGyzKtGQapvX8bCkF4WOO16+a8bWdYn5mtzOhituuSXsd3gsx7affEiaJJeY9FcZpE8np9ubK7HCrW1ex3pJc0LHDSCV261K0stzrstvvXHd77IuaLTa5na8VaavS2rNqIQd62+8Zqrq63sdkTBEFkGlSfkMZbCyyRP/p5APly5ZTvlvq7qbJ6lLV5vp5ObDjtindeWac1p61xRDN08k6YCLr9w+s3ftlS0r1ryr+eHHX+TuZ0q6MXSewPYul5IvhAw4s1gcVOr/HjLmKLVsadKbM8hbVebMP2NW5OaJ3Pwf19+07pOqv5ssX3/j1Z+X6+K4Wb1iS/09Lb+2UrGfJ+O/1XnzRJL8jhvX/aPMfxAxpw01esUHDlcHu8dk72sctv3vuPGaU2+/Yd3KWm2eSNLtfdc+uG3W1JMkXZ5B+mSnTTkyg7xZeFymz+Skl6y/6eo3rr9h3b/VUvNEktbfdM33yp4eZ9IfMyphctv8U2vhZSCqEFt4EFpn7IQmPdK8U6tCxhzsLlwgV1bHMO/ONpN9zXP6cut31kT/wrRdSzW/L+n7m85965G5Uu49Mr1dGeyV3y33s/u7CmtaVxTDHUPsDV+WlT4maVqwmKNinZLCr9OuIe5DR0ZdNmn6xR03rPtMzJSxJZZ8MlUa7dQ0k1Xs7b8l6avk0a6Qzfmhhv8TK1nG3Dz/cVf5JEVarZS4vUrSj2LkykBq0vc8Sb+4/vprb979f15b7ikWh9vb27t3JlNucynuUbHmR0laHzVnXBvkdnGyc0rvbbeNblt2NfvpTdfed8yJC+da6rebtHfs/GblmZIei50XtY8VKAhmy1ln7SVTe+y8Ln0x5OqTwUJhptz+OVS8gFJ36x0pJYc3r1jzoZYMmifPNus737unZeXad6eJH+5uvarCt/Qmu+jR7u6poeK1rFrVb7LoAw5dOt3PO29S7LzV5KmHqmg81b+qCq/pkG678ao/qYIzSZ5D5bZPRL0+fHktrxTYU7ffeOXPTPpptISJ191Kgl3bdOzryiWvuP3GazrrsXnytF3baHLnKvLnp1vc74hIRiT1JomOWn/jNa9ff9PVF9dD8+RpP7n+6gdkviyT5OU09nZs1AkaKAgmzZffpvirmrbZkH89ZECfZJ+VtFfImOPmuj41e03ryjXn7L169SNZl/NsM5cX/9i6cs05Zslxkm7Pup5nObjJh/4uZMA0b1+QFHuQ6IyB0raTIuesLnEfqoan+PZwK5eq2493/58EYn5ABaMfUcHYf8nsmmi5qob9V7RUrldEy1Vx9qRMX7TUD1t/49XL1v/wqvuzriiG22+88meSro2a1O2wqPkqa4fJ/tPS9PD1N15zzm3XX3NX1gVVyh03rLtc0g+jJ7bo8+xQJ2igIBzXaRlk/U5zsbg5VLCBrsVHy/XOUPEC2Cb53zSvXHvSzN41d2ddzO40965e3zzkb5Dp49p1hF5VMOkj/ectOSRUvNZLVj8o9+gP1yY7PXbOauKpXhIx3fpKHrdbVcw3xErlXskBnh7rVIXS5PL2eE2nauF+fbxcOjRarsp5XK6PD6UNB62/4Zr3r+9b93DWBcXm8s9HzlgPDZQtMn0mly8dcvuNV7/39r5rH8y6oDhiXytSagkNFIwJDRQE8VChMFkZTF33JPlG2ID+aVXN74WvTxI7umVF8StWQ9sIrFgst/Su/YwnybHmfk/W9TxlUlJKe0IGtF3T42Nb4BP49DSzeA9V5jZhHpA9zUV7I27SXgsWLAg+L+mEE06dLtms0HGfx29jHQ9aTWzn1DsVa+Wd6aDZs2c3RMlVIeb2jfU3XfOZX/RdPpB1LVmZku74kaTBiCkPKRQKuYj5wjNdvv6Gaz5+63XXPZ51KTGtf1Pb9ZJinqImpU4DBWNSJQ+KqHUzGpN2SZPjZvX1rctX/zxUtP6zO98k01tCxRunbzcP6U0zlq/5TdaFjFXr8tU/35FMalM20/j/B5e6+7sWvyZUvBmHHXmdZH8IFW+U9hvoWnxU5JzVwiS9OFYyN/91rFxZayqVY24LtM3DDcFPNytNGo63YsFULY3hqG67rbjDpFi/F/ncrAMqdmIT4ujr6yuZPOaJfY1/2rSN66YW9fSkMl0XM2ViCjYfDxMLDRQEkcpPjp409AqAxKvhtA2X6eMtK9a+I+Rg3Kzs19u7rfmwI95qsiyO/n22xDz936GCWU9Pap5+K1S8UefN4netCsx+41v2kxRtiK5b8ttYubL24x+v27hrwGUkSTojdEhzi9Zck2tCzLB4HvfGSpQbKUU9shwVE3W2RTn1/WPmQzjmHnWGnrvX9Co3ZIcGCoIwU+yHuh0jDUNrQwXr7y78lcmODxVvjEYkLWnpXVsNjZxgrKcnbV6x5kNmeo+y3opkdvrW7sWvDBUu9fJ3FP3vNDEbKA0NjVFvistlm0gPyW7Sn2MlS7wc/Ahw9yTa9WGyqhvkHUvqeihaLll1DXPHmKSWxJ3fZrZv1HwIxhOPOyg3MRooGBMaKBi3p4ZzHh41qfu6vb8V7ghJc/tYqFhjVDbp3JYVa4M1hapNc+/aL5n8fRmXkZTlHw4VrHXVZX+QtD5UvNGx4x8vFII/gFa9JOZxg/bkhr4rN8bLlz2XojUFSqlNDx3TkzTaw7a7T9gGiplHa6C4ae9YuVBJjb+Km48GSq0qDfnvoiZkBQrGiAYKxi0pl98YP2myOlSozeecdZSU6eyT1F3vbF6x9tIMa4iieUXxP2UKeqTwHnN1bTynEOwkEHdbEyrWKDU2TtKcyDkzl5Z9n3jZfEIN75PirqowD99AURptgKw8SSZuA8WTP8bL5TRQ6sAdN3x/k6RoDWmzmN8VCGnD/OMeU8xVvWaN0XKhrtBAwbi5J8dFTrl9pxqvCRUsKZffrQxPNnH5B1tXrv1OVvlja+ld+y+SPpdhCY0NqZ0fLJiNrJGUhoo3GuZ2Qsx8VcHiTcs3aVOsXNXClUbbwmOJgjdQEnm0BkquPPJErFzVxiziKRkJW3jqSLTZOaxAqWE9PamkaCecubOFB2NDAwUBeOzZIT/Yr7d3W4hAT7zj1OkynR0i1li4tLJ1RfHCrPJnpfmwIz4u+bqs8rt0vre350PEmrrisj9L/pMQsUbLpazn9URnHm85v5sm4gqUaEeNmnv4GSiWRLs+htU4YY+l9UT9sXKZiwZK3fA/RcxFA6WGufRkrFyJOytQMCY0UDAum5YunSHpVVGTuoI9eDcMN3VJCn4ixCj94skhvyCj3Jmynp7UhtQl6fcZlXDgwAH7LgwVzGXXhoo1Ssd7T88E+/yOt0VDE3AFismi3bSmHn4FiuTRHrZ37j1pS6xc1aZc8mgNFBczUOqGWbSmdCqxhaeGmRTkBeloeGKZrT5HbZtgN+AILafSsZJyMXOmOf9BqFgudYWKtYe2Ki2/9aBicUdG+TPXXCxuluxt2nX6UHSWeHeoWIlHb6DM6P/dvUdEzpm1eENC03j79atFqjTaTWtSmX3nsa6PHffUwRHzY7XX5KgNFFag1AnzeA0Uk1iBUtMs2ncRMFY0UDA+ic+OnPHumcuLQYbY9Z995otNFnt+iyTJ5B9vWfW9B7LIXU1aVqz5maR/zSj9ws2FQnOIQDNe9so7JEWdi2Bp9N+9bMU8kcM04VYYWMSb1tTSSjTd4zxsmybs9h1JWrdu3ZCkKI1/YwVKHUljboukgVLTvJx1BcDuBJkBgInMXhV1YLbshmCxLHeWshkee/uMw478slSMlvDxQmFa42Q71lxHpNJh5trbzaclbqlL20z2uCu9z02/aslNXW+XXBJtiFdzfsonB0vb36bYR2FLk6wpOVPSt8cbyHp60oGuzj5JhXFXNdqciV4dK1eViPY2OmYzoVqYa5tH+jQ0JUHvPY4sFBq1aVsFtgU9B59418ZzGJQ0OUIeVqDUC08ek0W7V2yZPXt2w4YNGzJZ3Qqg/tFAwfi4HxU3XXpzsGCJnRGx9/O04dTsAts1abyitpx11l6epGfJvNOlNqVqcP2/jpG5/fdf37Xr35hLg6XtOweWdt7s0qWpGr47a+XKir6Nt0su2dnfteRdpvRGRW5oJfIzFKCBIkkuv8Vk0Roocp9YDRRXa7Srw7U9UqbqYb414q9f0HuPaZuHWhWv+KFIeaqXa0ekn/ak9vb2fF9fXylKNlSM58qblUZb9G7l6QdNlTZM6NViACqHLTwYMy8UGhV51UApp9tCxNnafcY+cr0+RKw94vrWzN41d1cyxUB34dD+pZ0XprnyQ27+RZfeIGlPjmqbJNOJZvpmzkYe6V/aeeGmpWceWKl6Jal1xeo+c7+ikjmei0snPrJs0ZQQsSxVuObeKLhsYjVQTFNjpfIk3hC7amERm0aWhp2b5TkP8js8qlzyCTv/5L9Z1CbSpIi5UCFpKYk2pFqSJielaN8XACYeGigYs/7J+VdIinkE2O/3Wl4MchReyRsXKv71P+INyecqFfyRZYum9Hd19sjt12Z6n8LceE410/tylv9Nf1dnj793QVOAmM8pzeX+STH3g+0yeeq2KX8VIlDzI0/8UtLWELFGw6T9t769MJFmBMTYMrDLBFyBkireA07oGShWLkW7Nkya8A0UjzQDRZLK5cnxfu9RMUlDErUpneYUrakKYOKhgYIxy6XlIyOnXB8qkMlPChVrD3yr9ZLVD1Yi8ODZhTlTtk++26RPqDJNrckmfWKwf9odW7oKL69AfLUuX/3zLFahpPKTQ8Sxvr6S5BtCxBqtUkkT5SQeU8Q30eblCbcCpaxytAZK6BkoSpOYD9kTvoFi8mgzssoNxoNwHSjtHIm6AiUdSVmBAqBiaKBg7EwvjZrP/ZcBo70xYKzRKHta+kwlAg90F5Z5Yj+WdGgl4v8lOyqV/bS/q/P0SkR31ycrEfeFmHmwa8Hd7gwVa3QJk5dEzZeR9vb2JkUc0GG5/IRbgZKLOhzVwzZQcuWIK1BswjdQJIvWQPE0xwqUOjApbYraQMmZ00ABUDE0UDBm7npxzHyWhHk4HeguHCrpRSFijZZL17auuuwPoeMOdnf+g9y+prhbqaaZ9N2B7sI7QwduWVXcIPnPQ8d9YXZUqOOMzeyuEHFGz6P+DmalVJoa9SHKS+VoD4jVopQf2SrpgRh/TIGPAvZ4K1CYgSJJFm0LjydsxagHt7z56G2KuEXXI87MAjDxcAoPxs51SMwzU0ppKUgDxVI7IdZxnf+dM9BJL8800N350SxWbDwlJ7ev93cXyq29xUtCBjZPvu3mrwsZczdyuSYdJ+na8QayNL3Tk3gXVxJl1VH2yo02Jepx6Ul+wj0kb7j++kEp8qrCQCy1yR7viFRO4VFairYgzOPNt0EF9fSkmtexQ4rTEHPlaKAAqBhWoGDszGK+/R6YtfKyh4NEMh0dJM7obWpu3XpVyICDXZ1nyfXZkDHHwMzt4v6uJe1Bow6nKxX5IcXNgjRsduQm3aOYb9mkQ2LlylQ6EvUhypLySMx8GKckjbgChRkokqXRUuWizrdBZcU76UvptFi5AEw8NFAwJi6Z5AdFTPlAqEAuPypUrNGxtXbRumANgcGz3/oyl76qiDMhXkCDKV29revM/UMFbC4WN5v7uFeD7BFXkGtiv97ebZIeCxFrlA6JmCs7+chzEEo5Gii1xI1TeGIylaPlSuM1x1BxpViJ3Nj6BaByaKBgTJ7sPmNvRTwVQ+4PhgtmrwkXa/fc0x8Gi9XTk3iSWylpRqiYAew7ovyXg0ZMLNjPbDRcYRooTwX7fbBYu3eA9/TU/+d43FNWZEmJBkpN8XjXhzFE1lzxVqBEbI6hwlzRPlcTMQMFQOXU/403KiPN7xU1X2JBHkqfPOusfSXFrL1s3tAXKtiW++/9a0nHhIoX0OmbuzsXhQpmFreBYtLh3t4eZiaU6cEgcUYnP/ib3wQZgFvVPN4pK5I0lORpoNQSi7gCxRki6/J4K1BYSVA/LF4DxVNO4QFQOTRQMCYjOc2Mmc8CrUApJ2ncoZumDS2rVvWHCPXIskVT3PwTIWJVQuL6XKjVEDOWr/mNPG4jYuCQ/Q4MFCvmChRZMjIrZr5MJJHfQg8N00CpJRFXKaTyCX9tWMQZKGnMla6otGjNR07hAVBJNFAwJpZa1BUo7no0SBylcY9edrs5VKzJ2yddIGmfUPEq4JUDv7v39FDB3HRLqFijUgozT8Tcglyro0+Yq/sGSpqqKWa+KUqi7dXH+LnFuz5MCStQFG8GiplysXKhsiziDJRE1hgrF4CJhwYKxsTMoz60udumIIHMDgkSZ5RcujdULLPkr0PFqhTz9G9CxUpMvw4Va1SsfEiYQGmYa3X0+eq+gSIpzPaqUdreNDLhH5JriaXxHrLNOcbY3KOtQDE37lPrRKqIW3hovAGooKg3pagjHncLjxLbHCKMyfb3eKfMKk3SIE2AwaWLj3X3V4SIVVk2d9OSJQfNWr36ofFGctl9EU8ElqXaL0QcV7IxZt1S3GZmFtwssYg/05GEFSi1xM2jPWS7+Qfb5nW8O1a+auQRB3S6Uh6E64RFbKAoYlMVwMRDAwVj4rKpMc/QLZXsiRBxUtdMi1h4Q073hYjjiU6L+kw+dkk+54skjftUntSS+5KIswolaw0SxtNNiniRuazu93onlibu8X6mM4eHY154GCdzJREvj0liLkc0ZqxAqSPRGihs/QJQSXwxYUxMaoiacMr2rUHiJGmYh+TRGZj+7WKQxo88nRskTgRuHqTWbTtK94eIM2oWZlWVKd0SIs7o86nu93qnqUW9GZ48eXJttCshSXKLe30gnpSVBHXDI85AcfGZAKByaKBgrKI+tO21tSnMvnMPtMpgdIKcvuPLljVIdnSIWJEcGyLIQcXiDkk7Q8QapSDXRjmfRJ2R4F7/DRRL4r6F/uO0aTRQaogp3hYexJWwAqVumHvEPbk03gBUDl9MGJPID22uYjHI0k+zqEuvt4UIsnV7/0sUe8XP+Lzo8UJhWpBIpu1B4owqVZhrunEkH3vIZN03UDxNo35X7f3EE9GGZGL8nHuZupUaM1DqhsU7/tpSrhsAlcNNB8Yk8raBYQs1ldNjvpXwIA0Ulw4NESciyzcGqznIz3A0XGGujZGmHXFXoEyABkrst9B77703K1BqiLMCpW4lnMJTN0wW7XOVbX0AKokvJoyNWcwVESH3zcYbnGwWZPWEu5pDxIkpL5sRJJDHW4EieZBrY6g8Pd5JA5JsAmzhSSPfDBePPJIGSg3hqNv6lQZqbCN7HnMLD9cNgAripgNj4x7zIbE2vwg9zO+XWzIlRJyYPFGYLTxSxONswjyENe7cGfV0MzcNx8yXhcTjbuFRTw8NlBrCiRv1y5zVRXXDFG0LT6gVpQDwXPhiwpiYWcxtCgFXu3jEoaQeZChp4mnsmRrjlpa1I1CoICfjjIYFmrfSMC3uihAz1dz1safS+IMkaaDUEDcesusWQ2Trh8VbgUJTFUAl8cWEMXH3mA9tOe/pCXSthtlWM8pcQR7+y4mFOcI5pnwy7pp91+qTlgDVjDZfkGtjqBy3geJxTyrKhMU9xpjmSY1xtvDULbZn1Q9P481AiTvvDsBEwxcTxsQjv/V+7He/mxwoVMQGSphjcc2Sh0PEiSk3Yg+NN8bmpUunK+bMGlmQgbX5UtoUIs5oJWnU1WCZcIu6hYcGSo0xVinULU7hqR8W8RQetvAAqCRuOjAmFncFivK2M9RKhIFAcUZj6iPLFo17fsmQN/xGtfRQZ9o849JLN443TC5f2jtEOaNl8i1BAuUaom07kiRPam+L156KfBJH7fyuYRfmZNQt40G4fsTcwiNO4QFQOdx0YGzizkBR4kmg1Rx6NESc0Zq6bcqR442xX2/vNpndF6KeKFL9LEQYL6fj/tntUT75n8MEKge5VkfLPKn7LTyeRBwmTAOl9hj3MkC1c483RFasXAJQQdx0YGws0Nv60aYre5C3+p76YyHijDpfkh4VJpBuChInBgtTa2IW5mc3SsGaa5ZEm9siSanS2puRs6fcYzZQAACBJRFP1Ys6bwXAhEMDBWPibo9HTZizvUKEcVmYVQajzZeGaQKk5utCxInBU78mSBxX3BUoaRKkuWapom49SjyJ+7uYAfN4e+cV8+hshBHzzTaAMXGL99lqicqxcgGYeGigYExyridi5kvkBwYJ5Pp9kDijZOZBGiitDz2+TlLU1TNj4dKvWlcVfxEo3GsCxRkV81KQa8MTHRQizqjzeanuGyipOQ0UPL+IwykBjJFbvM9WdxooACqGBgrGxL0c9aHNPcxDaUOj/yZEnNGztocKhXGfIGR9fSVJvQEKqjC/OESUJ88r7CfpFSFijdLwjEc2hWquHRwozqgMj9T/CpREUd8m0kCpMe5RG2wAxsAjDnu2uN8ZACYYGigYk3LshzazIA2UaZcUH1Xck3gmT29M3hgiUD7v/yZpR4hYFbJxZEjfDBFoZMTeopgPsmYPPNWkGn8oT2OuQNm+T7H4ZMR8mUjjrjCggVJjLO4KJQBjYEm8WVauhAYKgIqhgYIxmVksDkqKePqHHxowVtQTbczUESLOtEuKj5rsKyFiVYLLPxXqYd4SWxAizqi5/zpYKLNDQsXaPYu6lS4rSfwVBjRRaog7D0tA1WMLD4A6QQMF4xFvFYrrFR7oocbdfhoizmil8k4vFIIcqTfcuKNH0p9CxArs7pYprV8OEejxQmGa3E8JEWu0zLQhRJxdtSvMvJ7RsLinSmUltSRuA6WnhwZKDTG28NSt6APrUTke8ZnDGCwNoHJooGAc/IGIyWZsXLJk/0CxfhIozqiYtP9gYzI/RKy9v3XFVnO7QFI1HdE3JNm5dvHFIyGCNUzS2yRNDRFrDwS5Jhon5V6hmKsX/P+2d+/RdZZl/v8/17N3em6TFMETnkBwAM9Aiw5IKYjTYhXQ3UIPUNQpzqijX0adA6NmKX7V+emMiqN+q6OlSdomezgItqFA2yiHNoWqoDAix1HO0DZp6SnJfq7fHxRFBtokvZ/72cl+v9aqa7kWfq6LurOzn2vfB90XrVaOksjfJpbuvJMByjDibOEZqbxQ8BvybgJhmEVcgcIZKAAyVMy7AQxjZvfINS1WubpR6dGSHjnQnGJiGyseef5g/hFJ14WIqm9t6+ieP/tfJf1DiLwDZW4X1be2/SJUXuL6UOzpkPUXgqxAsTT9i3i7vCU3uydetfyk7mnMz973339/Ij6ADxumqGfk7FZ1n0U1Euxx6f7E9a31N3T8Mu9mEIYr4iFXN2mPAAAgAElEQVSybOEBkCEGKDgQ90atluqtkg7426gJhx91d8+9d22WdNCBNzVgZ21deM5rG5eseDBEWP3rj/7nnnvvep2k2SHyDsB361vbgmzdkaSeuaUpLgty6O4g/G7S8uVPBUkye1vMxUFJ6jUxQLEkSRVx6Ln7sMNMm4LM1BCBSWmsV4fLv7Fxbce/RCoHjBzupkiDcE84FwlAdtjCgyHz+A9vx4YIsaamVNK6EFmDUEz6/VOhwqypKa1v3H6epFWhMgfdg9uS+tcf/YmQmZ7Y34fMG1BN1/Xh0tLjw2UNQJLUxADF07hbNF799NNs4RlGXFG/beaLJ2AIPOYyQmcFIYDsMEDBkHn8h7fjgiWZ1gTLGiCXL9p8zjnBrri1Szv21I9rONOkpaEyB8z1r5Na2z60dxgVxJZ5pTdJ+mCovAFzCzJA8aamxGVvDZE1YLsrNTFASZK4y7F37drFAGUYMY+3hceUMEABhsAiDh8t7lAVQI1hgIIh27E7vU+KetL54T2l0uQgSZVKkPNIBmlsoehfCBloixf31be0n++y8xVnX/52k+Y2tLb/gwXeq2JmX1H896Q+70s7QwRteeDXR0maGCJrQExb6svlLdHq5cjjn0fCQ/Iw4jFv3DCvi1YLGFmi/ew4K1AAZIgBCobsVeXyLsli3gJi6WidGCKoYdnl90u6PUTW4PjCvSstgmpsaVuaJoUTXH5L6OznWKW08tb6lvbloYO3zp19iklnhM7dL9fayeVyT4ioYn/x5BA5A+b6ddR6eUot6rnC3WpggDKMxFyBIoZrwJB4xAGKEgYoALLDAAUHyG+LWS2RTQuVZe5XhMoahEKS2A+9VCqEDp68dPkdDS3lE00236W7AkbfmrjNamhpP2Pv4Cko/8SM0ZboP0LnDtDloYLcPOoAxWS1dMppf8xi40btHBWzHg6Mx3xYcmMFCjAEScQBirECBUCGGKDggHjkAYrLp4XK6i+mwR6eB8U1pXuUBTtQ9rlM8vqWttaG1x/9JpO/V1JZz1y7OVjbTbrMU01vaGmfMqm17aeBW/2jnq0TL5F0VFb5+1ApJH0/CRHkkkmKvAIlrZkBisuG8hoeMvMxrDIYRlxpvNeHKfjwG6gFHnH1VirvjVULQO3hQyIOTGq3xR3D2Vu2nXvuS0JcO3vQZZff2T1/9q8kxT34U5KZvtIzb87N9a1tGzLJf+Zw15WSVj6yaNa4cbvHvtNTvcueGVS8QdJkPXNeRyrTdrk/JUt+Z+53VpR0Nu6pdFm5nPkHkJ75pb9y6aKs67yI1RObr3wiRNDWBXOOSdxfGiJroMxUOwMU86inunqln1UGw0lquxTrBeKcgQIMUbSVfYns6Vi1ANQeBig4IH19/otRo60iRftWLqkU0pkKdPOMmX7srm+FyBqkOje19pRKx2d9EOgrFl+zU9INe/9UjS3nlV7tqS1VXivhzJaEikrks0JlDVDPxNcfc88zC4xqgKW75DFfJs7vxuHEohyg/SxeG8BQuOpiDTpT1444lQDUIrbw4IAcUi4/7dLdMWvu3ZoSJqu/sExSTks9/TAfY//lixbV3DeaT5RKE5LUfiLp4Jxa2FzfsO3qUGHu4V6TA7Qp5BXS1c4rhZgPyPK0WHM/k8OaWbzXh8X7Fh0YUSziGSgyBigAMsM3KThgJnVJOjpiydN90aI6W7y470CDJi1f/tTW+bPLJs0L0diguU7p2dX9fUkfzqV+DlyyntH2n8ph69RzmvhPu7RjT4iobeee+5JUlakhsgbh1sj1cjUqSXdVou3RkNJCX00+JE+ZPuPjJlsYpZgVz+hac/XjIaKS1Hd5vJfHmGiVgBHF6xTrfTzRzjiFANQiBig4YGa+zt0uiFiyftuu7ndLWhUizGT/Jnk+AxRJcn1o6/zSHY0t5Ty2EkXXM2/2lyXNzrGFihL/fqiwNKmcpXhb2PbyNXHr5csKdbtUiXcRj3ldTf5uNOk1ko6NUau/d0+4FbDmu6I9mLnGxikEjDQ2LlYlV8oZKAAywxYeHLCiV26Q5DFrpq5zQ2U1tLT9wqSbQuUNhcm+sXX+7DPz7CGGnvmzz5XpH3Nu44qG5vIDwdKScK/FAdqzc9zumyPXzJXtqkTewtNfkytQpHhX9I4e6+GuGU2SmFt4oj0EAiNFqVQqSPGGj2zhAZAlBig4YONbrnhU0m9j1jTprMcWLBgfKq9i+tdQWUNUMKll6/w5b8m5j8xsnTv7FJcuU7Svil+Ypf71UFk75p/9crneFSpvgG7eezBwzSgWd0QdoFixUJvbNDzeqlQ3C7ekqJLGe32wAgUYtN8//XSwz2sDkTgDFADZYYCCINyi3/Ayfqx6g918Mrm5/Rrlf67E+ES+avO8sw/NuY/gus+fc7glapfiHSL3QlxaWb+svDFUXq/XzVH07Tuqqe07ktTZ2blHUrRDc9OKR/2wXzWSeFf09lYq4VagWDHmgI0BCjBIxf66CTHrVRigAMgQAxSEUbHoD3WeetCDVz21L4fMG1IP0isKVvxJyNU1eesplSar4qskvSTvXpLUvxgyzyzsa3BANVOvquuoI3FJu2MVS1SjAxQl0Vag9CVJuBUoCStQgGrWl/ZHHaBYkUNkAWSHAQqC8L60U9IB34ozKKZTu8+fc3iouIZlbVdL2hAq7wC8fUy6e6k3NQ37n08vlUb5aLtS0pF59yLpypCrT7acVzpR0htD5Q2IacukPm2KWrNqOOdcZM3jrUCZ3NsbbgVKf8QzcowBCjBYBYs7lC4qYQUKgMzU5E0DCG9yudzTPW/2WpneE7GsKdVHJP1TmDD5tsQvSlO7WTmf0yGzs3vuvev/SrkfuHpAto22xVL0M0JeSK+llX8IGWiVZJEs6tnJkusnVi6He/AcRky2w6WDYtRyU42uQIn3mWD79u3BXsfJqHRnpT/OvNmliVEKVbFSqVR4cOvO18SoZT6qZ+OaKzfHqIXsVDyZYBHvGtjRl7ACBUBmhv033Kgql0ev6P7hP5RKwb4RnLS0vF5m7aHyDtBnt82b8968mxiq7gWlD7t0ft59SJLJvlO/7PJ7QuVtX3DWIWZeCpU3UInbFbFrVgs3bYlWK63RFSgRb+HZtGlTsC08o3p7tyjSTXAmjT521qwafX084+HNOw5NUr8vzp/ei/L+90UIaZTh917eoG6uMQaQGQYoCCZJC1dKCrevfWAOnjg6OS9kYGrpZyVVwy9fS81/uH3BWYfk3chgdZ8/53C5fTPvPvZ6zNPCJSED+73u45Ji39SyfWLd2Fo8/+QZridjlUpqdgWKx1qB4go48Ojs7OyX1B0qb3/G7LaGWLWqkSeaFK2YRdy6h+y4vSxitc173xMAIBMMUBDMpOXLn5LpxhxK/33I80ImLy3/3k2fD5V3gF5a8brLPO8tRYPg06YV1e/NkqIeGrcPn2xYtmxrqLBHFs0aZ9LfhMobMLNrbMmSaAepVh+PuYw/3gNiFbFIW3hc6s0g9qkMMl9Qf9pX2wOUikccoHAY6EhgZhG/CLLH49UCUIsYoCAoy2Mbj/yI7nvufH/IxIbDj/6WquNAWUn6q54Fsy/Mu4mB6j70kH+R6R159/EM72hoaQ+6JWv8jnELlceNQml6ZfSaVcSURHtAdungWLWqiUujYtQxKYMDHj3a6yPxpKYHKLKIA0ZnBcpIYB7zPdUZoADIFAMUBFX0/iskRT/k0sw+H3KVhjU1panZXyvi1an75PpGz/zS6/NuY3965s053qSL8+5DkmTaUvHKopCR/okZoz3xPA72fXp3MqYjh7pVI434gOye/5XbOYk1GNgeOtBl0V4fqVdqe4DiFu0g3dQ4DHRk8JdGrPVEvFoAahEDFAQ1vuWKRyWtzqH0W7sXzDkrZODk5rbfuHJ5WH4h4yT7t7yb2BeXzC29VNVyu1fqf3tQ6xUPhYzctnXCX8v1qpCZA2Jqf1lzc01fy2gWb4uGWW2uQJFUH6eMBT9jyiJu4ZElER8Gq5B5pNeJJGcLz0iQSq+MVsyMAQqATDFAQXBu9p951E3S9Ishz0KRpIaW8rclXRsyc6hcmtU9b87peffxYrrnz1kg2dS8+5Akky5raC23hcz0hQvHuCzoVcgDlXiSy89UNbGIK1CUxxat6hDpwdjDH9Idc8AW82GwCnnMLTwcIjsimPQX0YqleixaLQA1iQEKgmv4w+NXS/F/gbnZMdvuu3NeyEyT3Pb4PEn3hcwdMvNv+qJF0a4aHagnSqUJifwrefex1+27bPTHQof29O34lKRDQ+cOwN0TW1asz6FuVUkj3sKjGj0DRdEGKOHPQPG4A7aaHqBYxC08cmcFyjA39dT3vVTS5HgVOQMFQLYYoCA4e+b6uJY8arvbVx5bsCDoFaT15fKWgtksSdtC5g7RUd07t/5t3k0836gxycUuvSLvPiRtVlo5O/R2l+0XlA6WWS7budz1Awt45euw5YWYt/CM2/uhv2a8ddqZDZLGRilm4c9AkZJor4+o2xGqkJu/PFqt1LbEqoVsmKVHxaznCVt4AGSLAQoykch/qHwe+l45Nt3996FDJza3/bekD0lKQ2cPlsm+sHXhmVVziOGW80qvlvun8u5DUq+nOrth2eX3hw6u9NoXFe/b+efqLSZ9zTnUrTqWJFFXtbkqR8asl7cxxb6YD8Xht/BEXLZv0qtj1apOFm2AlBYLDFCGOff0LTHrFTxhgAIgUwxQkIlJLeW7Jd2YR203++yW80rBP+A2tLRfbm6fCJ07BI3WV/fRvJt4ViFNLpI0Juc23GV/3bis/eehg7ecd+6bZfpI6NwBumpi85V8GJTUtebqJ6R4B0qae9XfehVSpVKJtoLMMjgDxdX/YOjMfXhDqVQqRKxXXTzeVsa+ZE/MlWfIxrtjFkvTyiMx6wGoPQxQkBlPc7s1ZnyS2veyCK5vbfuupK9nkT0oZp/yhQvzHlqop1Sa7PIP592Hyz/d2NK2NHhuU1OSVCrfV043C5nbv+dRt0q5pAejVTNFXXaet4JZxBU34c8o2FPnDyreqscxv+/edVikWtUo1gqU3juuu27Y3j7mSXrsO08//ZC8+8jTjBkzRss1LWLJ3V3TpjJAAZApBijITMOytqsl/XdO5WdunVcKeq3xs+pb2j/rUmsW2YPw0p6+nQty7kEaY38raUKuPZi+0dhSzmRYt+2+u/5GpndkkT0AP69vbduQU+0qZQ9GK+V6V7RaVcDdjolXLXk4dOLeB+1oBw1bv78pVq1qMm3atDGSDopUbnhv33F7T6W/eP+UU2Z+4x3T31uT5+Zs3p2cJinouXT7cb+amnLfag1gZGOAgsyY5DL/Zm71zb69pVQKfm6FSd4wruECyTtCZw+ykU+HvrZ5MHzhwjHuCn7bzSAtrz/86M9mEbx53tmHuuvLWWQPRI4ruKqX+b0Rqx137Gmn5XHuTT7M3x6tlKWPZpPs8W5LM50SrVYV2ZNMeLMki1PNRsL2nfFmuihVev/U6TOXnnDaGTW1sk3mn4lZzqvlxkQAIxoDFGSqvuHpy5TDlcZ7HVoYbd/KItgWL+7bbWNKkndlkT9AR3bfe9f78ire07/rfEkvy6u+pGvrxzWcbxl82+SSFaywWPkcHCtJv2s48qhrcqpdvVK7M2K1QsFHfzBivdw8Myiy42PVc08yWWLvivf6cPl7YtWqJqkq74xWzD2jQVsuRkla4Kn/Zur0M8pTps08Lu+Gsnb89JnvMunkqEVd90StB6AmMUBBpuzSjj0mfT+v+i6d3z2vlMlD0Muam3cUK8X3S3ooi/yBSKQL8qot8w/lVlu614u959rixX1ZhG+bX/qYZDOyyB4Q829kMRga7hLTb2LWM/fP1MJhocVK3QcU8Zyf/v7+TAYoFvf1ccQ7pp8Rb5hQNezseKXsgWi14kkk/6AlunXqKTOvn3rqzHcrx5WkWZly6lkHJa4lsetGfg8AUKNG3Js2qo8lfd+R1JNfA/bdpxeWMlkpMWH58sfNrSRpTxb5++PSjG3nnRVrP/ofdZ8/53C5on1j/Ty7PElmNy65qjuL8G3nzTnSZV/LInuAHqovjA9+IO5I0JvsuVNxr0d/w+83P/3ViPWie8c7SmNllsk2uBdROexlkzK5Wcos6golpZZ+XtG2s+RvyqlnnCTppFj13NIHY9XKhek0ua6b+vON90w5dcY/H3vSe6JdJZ6ladOmTTDf0y7T66IXd7sjek0ANYcBCjI3aemVm809z/McDu7v13LP6Jvk+ta2DeZ2URbZA1CXel0pdlGr+Hzl9OBg5hc2Ll3xyyyyfeHCMWmarpA0Lov8gTWhL9qSJbtzq1/FNt1wQ49L98etap+eMn3Gt4899ti6uHWzd+ysWePSsTuWSXpDtKKuR8rlciWL6NRH/VIxB2xu75kyfebno9XL0ZTTZ70ucW+JWtRH5AqUF3KYuX25WFf4wwnTz7hhyqkzLzzppBkH593UUBw/beZbdyXjbpY0PYfylWT3uLtyqAugxjBAQRR7evVvkjL51nFgbFr3aPtCVumTWtu+l9ehsuY+N3ZNl6LXlCRz/0l9c7k5q/ye/l3fkextWeXvn91TP75hSX71q59J6+PXtE8U619665RTZs4dCQfLnnTSjIOnnjrzY8UdlV9LOjNmbZcyWyWycc2VmyX9Lqv8F2JS05TpM38wEl4XL8KmnDrjTOuvbHTp1XErJw9GrZe/gstPNdf3e+vs0amnzlx/wilnfPn4U/7q1GnTpuV7290+HFMqjZo6fcbpJ0yf2Z4kuk3Sm3Nq5c7168u7cqoNoIZE2/OM2nZIufz01gWzv2qu3FaimHRxz/zSLfUt5WszyPYn+wsfqatLfy3X5ND5++KyE7sXlF7X0FyO8m1dz4JzprqnR8ao9TxPFdLihVmFb503+3zJP5xV/kCY6fNZnesyYritl/n8HCq/xUytxXRUZeopM38v6T4z3ZvKNydKtqfuqcny26r4Ikw+RmZj5T7ZzQ5z+eG90pvk+fz+T6Ssl9ivV8wVNZJM+kgxHVWaeuqMNilZZ6k/4Enxwa41Vz8es49QTjzxjMa+0X6cUh0n07ly5XJl8+jeSsxbt6pNQa4T3PyERMk/77Jx6dTpM+916Vfm/lspedilh016rOLaY0XtzKyTSv/YRMUxidIJXkjq0lSNpvSVLh0m2Ztt8463SzYx5t7KF+Kym3NuAUCNYICCaBoK477XU9n5f+R6VU4tJC5r23z+B9550GWXB/8W9OAVKx7pXjD7YknfC529H2ayWZK+HaOYp+n789i8Y+YXTVi+PJMHku65pWNl+m4W2QPnd0w6/Oj2fHsYBpLKTfJcF08W9u7tf51Lp5lMLpeZFPd4loHxZ/9zb3+5H9iReLYDFPcbZbYw0xovrF5uiyRf5CbJ+zV1+sxdkp7djrc1h54GzlUn0wRJDX1ykyvX011M+v2NN3Y8mV8HVSeRdKRJRz7zZvOnn+WCScryyHErSHKlMil9tq7l/17yfO435d0CgNrAAAXR2JIlu7cuKH3eZD/OsY1JhUrhiu65c09oWLYs+Afa+t3+g57R+hvJoi5hddcpijRAkfn0+J+svWtSczmT/feb5519qJtdY3meeyJJnnyGm3f2r2vNtXecMH3m76NvJ0AQ/ZXk9kzz+9OOYl0h58f/Pxq7948kNebZyH5Vw9/Wc7hsY949YFhxc/953k0AqA2cgYKoGprLl7n8lpzbOFLW3+7TpgUfINozhyN+OnTuAJyc1SG5z/Xkh943UbJjs67zPJ6ocJFl8PX+I4tmjSskxatMyvf2A/crGlrbrsu1h2HEZavz7gFD0rvr4HGZnlGy6cbVj8qU6ZAG2XNLb827Bwwjptu7OjseyrsNALWBAQqiMsnd9VFJ/Tk3clr3Kw/5RhbRDS3l63MYEjX2jE7eknWRUX1jTlL0lWt+7aSWFcH/Pl2ycTvH/lCu2AOh59vldYW/z7mHYcVdP8m7BwyFb7qzXO7Nuorx+hj+XLfl3QKGD3dfmXcPAGoHAxREN7m1/GuXfT/vPsz0d93zZv91JuGur2eSu++imV8buHerUFSe2v+XRW7Pgtn/KOncLLIH6ZLGJSsezLuJ4WSc71gt6bG8+8Agua6PUcbSSouq8UAaDNSOyvjihrybwDCS2lV5twCgdjBAQT6Kez6nXK813st06da5pbeGjm044pifSLovdO6+uDQtQpmTI9R4Dv9l47L2daFTt86dfYpcl4TOHYLf1Tduz2Ql1EjW2dnZL/mKvPvA4CSWRNl6tb5z9b2S8t4qiiGzjk3XXJPdrTIYae7a2LmKFUsAomGAglw0Lrmq28zzOCvk+UYrsdY/lEpj9/+PDpw1NaUuZXLo6YvWVLZXTXpTUyLpmCxrPJ9JPwqd2T13bqMVdJnyf/9zyT9ul3bsybmPYSlNkkslVfLuAwP20Pp3HR9tVYGZXxqrFsIyS/8r7x4wfLj5ZXn3AKC25P0AgRpW31xudvOf5t2HSUdPGGVfDZ2byKMOUCS96olSaUJW4T333fkaxb2ppr9QKZZDh3rSf2mOV2n/iemHDS3lKFsaRqJbb1h5v0ws2x4m3NWuiLdMvWryhP+S7N5Y9RDM7sLuulV5NxGEe6ekLXm3MbLZ04Vi+sO8uwBQWxigIFejvLJI0ua8+zDTx3vmzTk+ZGZ9S/leKeptEDaqTm/ILDxN/iKr7BexbsLy5Y+HDNxyXulEk+aGzBwS14N9dbs5OPYApRVdIomrn6ufp0oXxyxYLpcrbgo+GEfWrPnmm6/enncXIZiSW7xYOE6mX+Xdy8jl/7l+9WqGVACiYoCCXI1vueJRc/+7vPuQlKSWfjN0qElrQ2fus16S3ZAjtfSorLJfxJqQYV4qFZLUvivJQuYOpRUl/uGDfzQyHhLydGvnql+Z68d594F9c9fq29Zde3fsuhtPOv7HkjbFroshq6iQzaHhedl43TUPjK3sfIfMgm9Hhbb391W+lncTAGoPAxTkrr61vExS7nueTfbOngWz3xMyM03tZyHz9lvPPbMBismiDlDMw/7d9Yy2Dyjjc2IGwk3faWguRx2sjWQV17+IZfLVLUm+mEvdpqZUSfopsUppuFjWdf1P78m7idA6Ozt3d61Z+WFzfVJSX979jBiur2y6cfWjebcBoPYwQEFVKFjfxyQF3a4xFO76p5B5xULv+pB5+2OmwzOMPyzD7OfrnTS+PvA3x/6ZsHlDYffs0eigr7Fad2vnqsfM/G/z7gMvwtW2cc1Po74PPlfXDdfeJPm/5VUfA7ZLheRLeTeRpQ3rVn1bSTpdJh76D9ztT79kPDfYAcgFAxRUhYnNVz7hqc5V/rdqnNwz9wNHhAqb2HzlE5K6Q+Xtl2tyhukHZZj9Z1y61xYvDvZN3dbzznmbZMeFyhuiPZLOeVlz846c+xhxNqzpaDPnJoYq9MSofv9E3k1MHq1/kfwXefeBF+eui0fi6pPn67rh2puKSfG4vQfMYmh2y9Lz7iyXe/NuBEBtYoCCqtG4rH2dm3057z7cktmBI+N9KEzUmGF6ltl/xqTfBc1L0w+GzBtaE/pUQ0sbD3EZGeO7PippY9594DnMP3bjjR1P5t1GR0fHnmKhbpbkj+TdC17QzRtPnvKtvJuI5ebrr36k6+Spp5rsH5X/l0bDj/vHutZce0febQCoXQxQUFUadqdfVOSDV/+XxE4Nmuf+h6B5+6xlWQ45GjLM/jMueyhw4ulh8wZtRUNz+/dz7mFE6+zs3F0sFM+S64G8e4Ek88VdazpyP9vqWTdff/Uj5na2ZE/n3Qv+zOMFaV7MK66rQlNTumHtyq/J7N0M9gbB9JWudR0cyAsgVwxQUFWsXK4UK4W5rhz3CLve7gFvajGziLeteCYDFJ82rShpYhbZL8Tcg/2d+aJFdZK9MVTeEPyub9TuRTnWrxk3X3/1IwVzHkhyZ6vGVnZ9LO8unm/DulVdrvT9knbn3QskSTuV+pm3rF31P3k3kpeuNSvXjerTW911bd69VDuXfa9rzaqL8+4DABigoOpMWL78cSmZK6k/pxbquxeeWR8qLFXMAYoaQg5/nrX95S9vUNTrfz3YOSHdvdteKWlMqLxB2umy2VxZHM8tazvu82LxREnRr82FJNNtY9Mdczo7O/N6/96njWs71iayUyU9lXcvNa4vMX2gq7NjQ96N5O3GGzue3Lhu1UyZPs4KqRd1yca1Kz8myfNuBAAYoKAqNbas6DS3T+ZVP+1LJoTKSuLucS6qVAr+c73HfVTozP0I9nfmFQ/2/+VgS8v9/MaWtttzql+zNl53zQP9aeFEl27Ju5cac3NSrLyns7Ozqh8C169deYvMT5b0YN691Khd5vbB9WtWseriT7xrzar/sLTyJknX591MFel300e71q76nBieAKgSDFBQtepb274r6bt51C74mGArIFwaGyprAPqsXA4+sBk9as+e0Jn74mbBVowU+/tz+SbcpC80tJar5gyIWrOp85qndhw0/hSZfUlSsBud8KKWJ7vGv3v96tVb8m5kILrWdNyV1FWOldScdy815vFEdtqGdSuvzruRarSh89oHu9auOt1lsyUNi5+lzLgeMPdpG9es+n95twIAz8UABVWt/qEnPqn438bsaFi2bGu4OJ8ULmu/Mtnbv3tXMeoAJZGC/Z3tLI6Ld4jvnyyf1NJ+SQ518Rx3lsu9XWtWfj5NNUXc0JOVHpkt6Fq7au769eVdeTczGOtXr97StXbVeW6axeHDEZhWFor9b16/diUrw/Zj49qV5f6+yhvl+n/KbztzXvpN9p1ddf1v2rCu4+a8mwGA52OAgqpmnZ39SotzFPU8Aw+6J9vkrwyZtx+ZDFAObmyMvQLlFaGyXtbcvEOyeFdJy7vqi+M+ZCw3rhq3dq76VdfaVVOVpCeZbE3e/YwQfTJfnKb6i641K1CK9hsAABCNSURBVFvybuZAbFyz6qf92x5/g0kXKPAV6pAk3eOy2V1rVs265brrnsi7meFi042rH+1at+qjFU/faFJZI/93SmpS2U3HbFi78hN3XHddsJXAABASAxRUvYZly7ZaWpkl6ck4FS3ovmxX8uqQefuRyaDDFi/uU8yzXNxfEzROWh0ybx8eKBZ1pi1Zwi0fVajrhmtv2rB25WmppVNM+ndu6xmSh2X2pbTYf3jXmo4Lb+1c9VjeDYWwadOmvg1rVy159UHjj05MM8z9Mkk9efc1nLl0i7uf39/z+DEb166shQFAJm5bd+3dG9aumq3U32nSMs/o93yOHpb0VTcdtWHtqtkb16xiiAmgqhXzbgAYiPpll9+zdf6cd5u8U1JDhqV2F4se7NvUbeee+5JUlaDDgH0yZflA+JikWKtp3uKLFtXtHdwcMDO7TO4fD5G1D08m8hkTlpRHxAPlSHbrmmtvlXSrmpo+PfWmDe+0tHCyy/9S0l8q4PaxEeQOmVanabr6tS+Z2FnO4JylarH33+1aSddOmzZtzC4bM12WnCS3E2V+nPK70Ws46JX7LZ7oek/Tn9y6bvWdeTc0kuy9sWjDsdNmfbKYpAslLZT8mHy7GpKKTL+U289kvvrVk8evHcnvKQBGHgYoGDYaW9pu3zp39tmWaJUy+xBrP56wpD3YA7An6fGhsgZWMLtbJUx6wOMNUMZ27+w5WlKQG2wamlfc1j1/9lpJ00PkvYAeT/30ScvKXJ07nDQ1pV3STXrmj0qlUuF/tuw4XNKRiXSkXEe49BpJB8l1sEwvkTQxz5Yz9ISkxyU95NLDievXKiR3FHf77TfdtPKPZ0Ldml9/0XV2du6WtGrvH82YMWP0ll5/g2RHKrUjZDpC0qEyHaxUB+19fcQ8NDwPfZKekOlRSY/Lda9Jv5Hr1zvr+n/Dtovsbeq85ilJX5f09b989/te0Z9Wpst9uqTjJHudlNvNc8/XJ/mTkt1t0t1u+q3c/7s/6evadMMNf1zd1ZVnhwAwBAxQMKw0Lmtft3V+aY7JLlf41+9Thbr0C0ETzacEzdu/zA5CTKUHTToxq/znM/cpCjRAkaQ0KfyfJK3cJqkuVOZeuzzV+xqXlX8VOBeR7f0W9HfaxzkYM2bMGL19ezJOkiqjbFx/4qNj9RdSXeqVpNe2PV2s8191XtWddz/DQUdHxx5Jd+z984KOnTVr3Nit6WhJ2jUmmZgoHfafs9I9/bvGenF338S00tXRsS3vfvAnN19/9SOSWvb+kSSddNKMg/uKdlgqa5BpkuRFc8tk8GtJuiP1pFeSTGlPouTpivlTvZVRT4yk95VEydmx3uvrkr6qvgY+c6mfkRaTUTFKjdmTbo9RByPPsP/FjtrT2FK+euu82Rea6YeSLFCsu9mFE3/cHvScFZciD1D8fzIMj3tLhdlUST8IFTd56fI7ts6b/TUz/UuoTEn9qWnO5GXtPw+YiSq29yH62TMIAt7WhZFg0zXX7JS0c+9/5fWB6G68seNJRTszrjasX/vTh/PuoVZ0dXY8lHcPwP5wiCyGpcbW9h+Z28cV6FA6d325sbntihBZz9pSKtUruy0jL8hNd2WVnZhllv3CfJZPmxZ0yNvQ603auxw/gD6ZzZ3c3H5NoDwAAAAAVYwBCoat+ta278p1oaT0QHJcamlobf98oLb+KBmjDyrugYP9ezTmtqzC04IFvd55AA7ZdujBp4UMtHK50jdq9zmSfnGAUb0uzW5obiuH6AsAAABA9WOAgmGtobX9B+a+QFL/kAJMP2h4/dHnWybXK9q88Jn7KqfbX9bcnNkBfo1LVjxoyvSWn/8l9WRu6MyDf3T1di/2nuryW4YY0eupzW5sab8qaGMAAAAAqhoDFAx79a3lZea6QNJgrsFzd11S39x+oTU1HdAKlheyed7Zh8p1cujcffFUma8Q8cgH5pv5WU+USsFvFGhcclV33x69x6TBbr/ZZfL3Ny5r+0nongAAAABUNwYoGBHqW9tbZHau/nS4475sd/cPNLa2fy6blSdSkhQ/q8g/X2Zal3kNt8xrPM+EUaPtY1kEH1IuPz2ppf39ZvqcBrYNbJvM31vfUr42i34AAAAAVDcGKBgxGprbyp7qdO3j5gOTblLB3tbYWr4yqz6ePOecV5jrI1nlv4hdu2105g/2fYX0CmU0dNqHz2yeN29SFsEmeX1z+yWu5FTJ7t/HP/qwy97V0Fxem0UfAAAAAKofAxSMKI3L2n9ecD9Rsudf57vTXZ+e9PqjT264rO2+LHuoK/oXJI3Nssbzmft1WZ5/8qyXLC0/LCmzg2pfxEFF9X4qywKNLSs6d9uoN7vpUv3v1Si/qfQn72hsabs9yx4AAAAAVDcGKBhxJraW7yoW0xNk2iRJbv5TLybHNLa2fyOL806ea9t5c46U/IIsa7yQVJbZipr/xT3odc8DKml20fYFZx2SZY2XNTfvaGxu/7uC2RslPbOax7TOi70nHbRixR+yrA0AAACg+jFAwYg0YUn5sb663aekiZ/U2Fye1bhkxYNZ1/Rp04pp6pdJqsu61vNsT1UXbYBSUaVFgzuwN4T61Ot+EKPQxOa2/25oaZ8h+en1DdtnNC65qjtGXQAAAADVjQEKRqyDf3T19slLyzfFqrft0EMulnRCrHrP0XxQa+u2WMUOar3iIZNWxqr3LJfe1z1/TrSzZRpaytfbpR0DOZQYAAAAQA1ggAIE0D1/zttdujiP2qn796MXdYtf85nC3+yZ+4Ej8qkNAAAAoJYxQAEO0JPnnPMKuV+u+Ft3JGnt5Nbyr2MXnXTEUatl9tvYdSWN96RQ3lIq1edQGwAAAEANY4ACHIAtpVJ9XTFdKdNr86jv5l/Mo641NaWWpl/Ko7aktySjrOORRbPG5VQfAAAAQA1igAIM0R9KpbGF0bpG0ltzacC0rrG5/LNcakuadMQxKyT9JpfipneM3zl2hU+bVsylPgAAAICawwAFGIKtC89smDjKrnbZSTm14Emqz+VUW9Izq1AkNeVV36VZPYce0vqHUmlsXj0AAAAAqB0MUIBB6j5/zuHqH3WzTKfl1YNLyya1tt+cV/1nNbS0Xy7X6hxbmD1xtG7efM45r8qxBwAAAAA1gAEKMAjb5s3+S1V8vUlH59jG05XE/yHH+n+mIL9IUl9+HdjbisV0Q/eCc47LrwcAAAAAIx0DFGAAfNGiuq3zZ38xNXVKOjjPXkz+Ty9ZWn44zx6ea2Jr+S6XvppnDy69Qp7e2D2vdLEvWpTHbUgAAAAARjgGKMB+bDmvdGLPzu5bTfqcpHwPLTWtm9RS/o9ce3gBDXv8Ekm/yrmNMTK7ZNuOrb/cNv+cd+bcCwAAAIARhgEKsA9bF57z2iS1xZLekncvkjZ7pf8CkzzvRp7PyuXe1GyBpB159+Jmx6RKL3363HNfmncvAAAAAEYOBijAPjQuWfFg/euPfqPMZku6L8dWKiaf37jsiv/JsYd9mtzc9ht3X6B8Bzx3u+z8+tcfffyE5csfz7EPAAAAACMMAxRgP6ypKW1obivXN24/xkyfdOnR2D2426frW8rXxq47WI2t5Stl9rUcSj/gsg/V7/FjGlvalu69YhkAAAAAgmGAAgyQXdqxp765/dsNe/y1LjtfZr+NUdfdmhtb274Zo1YI9YcfdbFLKyOV+7XLzq9/6IkjG1vafmzlciVSXQAAAAA1hgEKMEhWLvc2trQtrd+dPru15xeZ1ZLf2FA3dlFW+VmwpqZUxd75kn6TWQ35jSZ/b31L+1saW9qWWmdnf1a1AAAAAEDK+0YRYBjbu9qhLKncPbd0rJJkkeQLJI0NVGJD76g9Z9iPyrsD5UXTuOSq7u0XlKanvVrnZscEit0t6Zok8X+ftLS8PlAmAAAAAAwIK1CAABqWlTc1tLRdWLC+18r0z3I9eECBpo3pHv+rg3909fYwHcY38cflJwt1Ok3S3QcUZPZbl3/Ki70vb2hpn83wBAAAAEAeWIECBDSx+conJH3Fm5q+1n3vb99lli6Q6wOS6gea4fJbVOg7Y3L5qp7sOo1jwpLyY0+ec870umK6WtIbB/E/fcpdbYmspb6lbUNW/QEAAADAQFneDQAjnS9cOKanf+f7JJ0r6XRJ4/bxj6+oL467wJYsGXbbdvZl87x5kwrqa5fpPfv4x7bJrMM9XdYwrrHDFi/ui9YgAGDEmzp95kOSXhmjlrn93w3rVl4coxYAIB5WoAAZ2zsMaZfU/odSaeyk0ZruslmS3qs/fZCrmPsXJ7WWv2SS59ZsRg5qbd3m06a9t/uVh3zDTJ/Qn4a3D7jrGivomvpd/nMrt/fm2ScAAAAAvBhWoAA5ccl65s95m3n63jTRzxqbyz/Lu6cYts2b895U6RvTJPnp5Oa2zG7qAQDguU44ZebXPPGGGLVc6ti4puOqGLUAAAAAAAAAAAAAAAAAAAAAAAAAAAAAAAAAAAAAAAAAAAAAAAAAAAAAAAAAAAAAAAAAAAAAAAAAAAAAAAAAAAAAAAAAAAAAAAAAAAAAAAAAAAAAAAAAAAAAAAAAAAAAAAAAAAAAAAAAAAAAAAAAAAAAAAAAAAAAAAAAAAAAAAAAAAAAAAAAAAAAAAAAAAAAAAAAAAAAAAAAAAAAAAAAAAAAAAAAAAAAAAAAAAAAAAAAAAAAAAAAAAAAAAAAAAAAAAAAAAAAAAAAAAAAAAAAAAAAAAAAAAAAAAAAAAAAAAAAAAAAAAAAAAAAAAAAAAAAAAAAAAAAAAAAAAAAAAAAAAAAAAAAAAAAAAAAAAAAAAAAAAAAAAAAAAAAAAAAAAAAAAAAAAAAAAAAAAAAAAAAAAAAAAAAAAAAAAAAAAAAAAAAAAAAAAAAAAAAAAAAAAAAAAAAAAAAAAAAAAAAAAAAAAAAAAAAAAAAAAAAAAAAAAAAAAAAAAAAAAAAAAAAAAAAAAAAAAAAAAAAAAAAAAAAAAAAAAAAAAAAAAAAAAAAAAAAAAAAAAAAAAAAAAAAAAAAAAAAAAAAAAAAAAAAAAAAAAAAAAAAAAAAAAAAAAAAAAAAAAAAAAAAAAAAAAAAAAAAAAAAAAAAAAAAAAAAAAAAAAAAAAAAAAAAAAAAAAAAAAAAAAAAAAAAAAAAAAAAAAAAAAAAAAAAAAAAAAAAAAAAAAAAAAAAAAAAAAAAAAAAAAAAAAAAAAAAAAAAAAAAAAAAAAAAAAAAAAAAAAAAAAAAAAAAAAAAAAAAAAAAAAAAAAAAAAAAAAAAAAAAAAAAAAAAAAAAAAAAAAAAAAAAAAAAAAAAAAAAAAAAAAAAAAAAAAAAAAAAAAAAAAAAAAAAAAAAAAAAAAAAAAAAAAAAAAAAAAAAAAAAAAAAAAAAAAAAAAAAAAAAAAAAAAAAAAAAAAAAAAAAAAAAAAAAAAAAAAAAAAAAAAAAAAAAAAAAAAAAAAAAAAAAAAAAAAAAAAAAAAAAAAAAAAAAAAAAAAAAAAAAAAAAAAAAAAAAAAAAAAAAAAAAAAAAAAAAAAAAAAAAAAAAAAAAAAAAAAAAAAAAAAAAAAAAAAAAAAAAAAAAAAAAAAAAAAAAAAAAAAAAAAAAAAAAAAAAAAAAAAAAAAAAAAAAAAAAAAAAAAAAAAAAAAAAAAAAAAAAAAAAAAAAAAAAAAAAAAAAID//PymFHMU1zoIMAAAAAElFTkSuQmCC;sketch=1;" vertex="1" parent="1">
          <mxGeometry x="710" y="43.96" width="69.86" height="32.08" as="geometry" />
        </mxCell>
      </root>
    </mxGraphModel>
  </diagram>
</mxfile>
